<svg xmlns="http://www.w3.org/2000/svg" version="1.1" xmlns:xlink="http://www.w3.org/1999/xlink" xmlns:svgjs="http://svgjs.dev/svgjs" width="1000" height="623" viewBox="0 0 1000 623"><g transform="matrix(1,0,0,1,-0.6060606060605664,0.2522267206477409)"><svg viewBox="0 0 396 247" data-background-color="#8abcd7" preserveAspectRatio="xMidYMid meet" height="623" width="1000" xmlns="http://www.w3.org/2000/svg" xmlns:xlink="http://www.w3.org/1999/xlink"><g id="tight-bounds" transform="matrix(1,0,0,1,0.2400000000000091,-0.09999999999999432)"><svg viewBox="0 0 395.52 247.2" height="247.2" width="395.52"><g><svg></svg></g><g><svg viewBox="0 0 395.52 247.2" height="247.2" width="395.52"><g transform="matrix(1,0,0,1,75.54432,99.67539454350161)"><svg viewBox="0 0 244.43135999999998 47.84921091299677" height="47.84921091299677" width="244.43135999999998"><g><svg viewBox="0 0 244.43135999999998 47.84921091299677" height="47.84921091299677" width="244.43135999999998"><g><svg viewBox="0 0 244.43136 47.849210912996774" height="47.84921091299677" width="244.43135999999998"><g><svg viewBox="0 0 244.43136 47.849210912996774" height="47.849210912996774" width="244.43136"><g id="textblocktransform"><svg viewBox="0 0 244.43136 47.849210912996774" height="47.849210912996774" width="244.43136" id="textblock"><g><svg viewBox="0 0 244.43136 47.849210912996774" height="47.849210912996774" width="244.43136"><g transform="matrix(1,0,0,1,0,0)"><svg width="244.43136" viewBox="2 -36.25 186.18 36.45" height="47.849210912996774" data-palette-color="#ffffff"><path d="M13.4-2.45L13.4-2.45 15.35-2.55 15.5-0.55Q15.45-0.55 14.8-0.4L14.8-0.4Q13.3-0.05 11.45-0.05L11.45-0.05Q9.75-0.15 8.35-0.63 6.95-1.1 5.75-2.63 4.55-4.15 4.55-6.55L4.55-6.55 4.55-22.1 2-22.1 2.4-24.5 4.6-24.95 5-29.75 7.8-30 7.8-25 13.85-25 13.85-22.1 7.8-22.1 7.8-7.4Q7.8-2.45 13.4-2.45ZM25.4 0.2L25.4 0.2Q18.75 0.2 18.35-5.05L18.35-5.05Q18.3-5.4 18.3-5.75L18.3-5.75Q18.3-9.95 23.35-11.35L23.35-11.35Q26.15-12.05 34.15-12.95L34.15-12.95 34.15-16.8Q34.15-22.25 28.45-22.25L28.45-22.25Q24.35-22.2 19.75-20.35L19.75-20.35 18.9-22.5 19.4-22.7Q23.3-24.4 25.35-24.75 27.4-25.1 28.35-25.13 29.3-25.15 30.17-25.1 31.05-25.05 32.45-24.65 33.85-24.25 34.87-23.53 35.9-22.8 36.65-21.35 37.4-19.9 37.4-17.9L37.4-17.9 37.4-2.5 41.25-2.5 41.25 0 34.65 0 34.15-1.9Q29.65 0.2 25.4 0.2ZM26.3-2.1L26.3-2.1Q30.1-2.1 34.15-3.8L34.15-3.8 34.15-10.95Q26.65-10.7 24.45-9.95L24.45-9.95Q22.75-9.5 22.05-8.33 21.35-7.15 21.35-6.45 21.35-5.75 21.35-5.5L21.35-5.5Q21.5-3.7 22.9-2.9 24.3-2.1 26.3-2.1ZM68.9 0L58.15 0 58.15-2.5 61.25-2.5 55.75-11 48.7 0 43.85 0 43.85-2.5 47.1-2.5 54.2-13.35 48.1-22.5 44.85-22.5 44.85-25 55.3-25 55.3-22.5 52-22.5 56.8-14.9 63.15-24.95 63.25-24.95 63.25-25 68-25 68-22.5 64.84-22.5 58.3-12.5 65.15-2.5 68.9-2.5 68.9 0ZM76.74-22.5L73.39-22.5 73.39-25 79.99-25 79.99-2.5 83.74-2.5 83.74 0 73.64 0 73.64-2.5 76.74-2.5 76.74-22.5ZM78.29-31.7Q77.29-31.7 76.74-32.33 76.19-32.95 76.19-33.98 76.19-35 76.77-35.63 77.34-36.25 78.34-36.25 79.34-36.25 79.97-35.63 80.59-35 80.59-33.93 80.59-32.85 79.94-32.27 79.29-31.7 78.29-31.7ZM116.19-22.3L116.19-22.3Q111.94-22.3 109.31-19.48 106.69-16.65 106.69-11.55L106.69-11.55Q106.69-2.7 114.94-2.7L114.94-2.7Q118.14-2.7 120.29-3.23 122.44-3.75 122.64-3.9L122.64-3.9 123.34-1.55Q122.19-0.8 119.54-0.3 116.89 0.2 114.74 0.2 112.59 0.2 110.84-0.25 109.09-0.7 107.31-1.85 105.54-3 104.49-5.48 103.44-7.95 103.44-11.5L103.44-11.5Q103.44-18.05 106.79-21.4L106.79-21.4Q110.54-25.25 116.24-25.25L116.24-25.25Q118.04-25.25 120.06-24.78 122.09-24.3 123.19-23.3L123.19-23.3 123.19-16.75 120.74-16.4 120.49-21.65Q118.44-22.3 116.19-22.3ZM151.94 0L141.84 0 141.84-2.5 144.94-2.5 144.94-17.2Q144.94-22.05 139.54-22.05L139.54-22.05Q136.69-22 133.14-20.15L133.14-20.15 133.14-2.5 136.94-2.5 136.94 0 126.84 0 126.84-2.5 129.89-2.5 129.89-22.5 126.59-22.5 126.59-25 133.19-25 133.19-22.5 133.14-22.5 133.14-22.35Q137.29-24.95 140.74-25.15L140.74-25.15Q145.49-25.15 147.19-22.45L147.19-22.45Q151.54-24.95 155.39-25.15L155.39-25.15Q158.89-25.15 160.69-23.7L160.69-23.7Q161.54-23.05 162.16-21.68 162.79-20.3 162.79-18.4L162.79-18.4 162.79-2.5 166.49-2.5 166.49 0 156.39 0 156.39-2.5 159.54-2.5 159.54-17.15Q159.54-22.05 154.19-22.05L154.19-22.05Q151.29-22 148.04-20.25L148.04-20.25Q148.19-19.4 148.19-18.4L148.19-18.4 148.19-2.5 151.94-2.5 151.94 0ZM173.53-8.05L173.78-3.25Q175.88-2.6 177.16-2.6 178.43-2.6 178.83-2.65L178.83-2.65Q181.43-2.7 183.18-3.75 184.93-4.8 184.93-6.7 184.93-8.6 183.56-9.65 182.18-10.7 180.23-11.25 178.28-11.8 176.33-12.45 174.38-13.1 173.01-14.5 171.63-15.9 171.63-18.15L171.63-18.15Q171.63-21.35 174.08-23.28 176.53-25.2 180.28-25.2L180.28-25.2Q183.08-25.2 185.93-24.2L185.93-24.2 186.83-23.85 186.83-18.1 184.38-17.75 184.18-22Q182.18-22.3 180.83-22.3L180.83-22.3Q178.08-22.3 176.48-21.23 174.88-20.15 174.88-18.48 174.88-16.8 176.26-15.85 177.63-14.9 179.58-14.35 181.53-13.8 183.48-13.13 185.43-12.45 186.81-10.93 188.18-9.4 188.18-6.95L188.18-6.95Q188.18-3.65 185.71-1.73 183.23 0.2 178.68 0.2 174.13 0.2 171.13-1.95L171.13-1.95 171.13-7.7 173.53-8.05Z" opacity="1" transform="matrix(1,0,0,1,0,0)" fill="#ffffff" class="wordmark-text-0" data-fill-palette-color="primary" id="text-0"></path></svg></g></svg></g></svg></g></svg></g></svg></g></svg></g></svg></g><g><path d="M0 123.6c0-68.262 55.338-123.6 123.6-123.6 58.07 0 106.786 40.046 120.04 94.027h-2.224c-13.205-52.778-60.946-91.87-117.816-91.869-67.071 0-121.442 54.372-121.442 121.442 0 67.071 54.372 121.442 121.442 121.442 56.871 0 104.611-39.092 117.816-91.869h2.224c-13.254 53.982-61.97 94.027-120.04 94.027-68.262 0-123.6-55.338-123.6-123.6z" fill="#ffffff" stroke="transparent" data-fill-palette-color="tertiary"></path></g></svg></g><defs></defs></svg><rect width="395.52" height="247.2" fill="none" stroke="none" visibility="hidden"></rect></g></svg></g></svg>