<svg xmlns="http://www.w3.org/2000/svg" version="1.1" xmlns:xlink="http://www.w3.org/1999/xlink" xmlns:svgjs="http://svgjs.dev/svgjs" width="1000" height="623" viewBox="0 0 1000 623"><g transform="matrix(1,0,0,1,-0.6060606060606233,0.2522267206477977)"><svg viewBox="0 0 396 247" data-background-color="#1b4571" preserveAspectRatio="xMidYMid meet" height="623" width="1000" xmlns="http://www.w3.org/2000/svg" xmlns:xlink="http://www.w3.org/1999/xlink"><g id="tight-bounds" transform="matrix(1,0,0,1,0.2400000000000091,-0.09999999999999432)"><svg viewBox="0 0 395.52 247.2" height="247.2" width="395.52"><g><svg></svg></g><g><svg viewBox="0 0 395.52 247.2" height="247.2" width="395.52"><g transform="matrix(1,0,0,1,75.54432,58.36426823462651)"><svg viewBox="0 0 244.43135999999998 130.47146353074697" height="130.47146353074697" width="244.43135999999998"><g><svg viewBox="0 0 244.43135999999998 130.47146353074697" height="130.47146353074697" width="244.43135999999998"><g><svg viewBox="0 0 244.43135999999998 130.47146353074697" height="130.47146353074697" width="244.43135999999998"><g><svg viewBox="0 0 244.43135999999998 130.47146353074697" height="130.47146353074697" width="244.43135999999998"><g id="textblocktransform"><svg viewBox="0 0 244.43135999999998 130.47146353074697" height="130.47146353074697" width="244.43135999999998" id="textblock"><g><svg viewBox="0 0 244.43135999999998 94.73049432314407" height="94.73049432314407" width="244.43135999999998"><g transform="matrix(1,0,0,1,0,0)"><svg width="244.43135999999998" viewBox="0.4000000059604645 -34.900001525878906 91.5999984741211 35.5" height="94.73049432314407" data-palette-color="#ffffff"><path d="M10.05 0L0.4-34.3 6.25-34.3 12.55-11.05Q12.9-9.8 13.7-5.95L13.7-5.95 13.95-5.95 14.9-11.05 20.1-34.3 27.5-34.3 32.85-11.05Q33.2-9.6 33.85-5.95L33.85-5.95 34.1-5.95Q34.9-9.75 35.25-11.05L35.25-11.05 41.45-34.3 46.8-34.3 37.15 0 30.2 0 24.7-23.4Q24.25-25.35 23.65-28.75L23.65-28.75 23.4-28.75Q22.85-25.05 22.45-23.4L22.45-23.4 17 0 10.05 0ZM51.4 0L51.4-34.3 56.95-34.3 56.95 0 51.4 0ZM77.65 0.6Q71.45 0.6 67.45-1.98 63.45-4.55 63.45-9.8L63.45-9.8 63.5-10.85 69-10.85Q68.9-10.15 68.9-9.85L68.9-9.85Q68.9-7.05 71.25-5.58 73.59-4.1 77.59-4.1L77.59-4.1Q82-4.1 84.25-5.4 86.5-6.7 86.5-9.15L86.5-9.15Q86.5-10.9 85.27-12.03 84.05-13.15 82.17-13.83 80.3-14.5 77.09-15.35L77.09-15.35Q73.05-16.4 70.47-17.43 67.9-18.45 66.09-20.43 64.3-22.4 64.3-25.6L64.3-25.6Q64.3-30.15 68.05-32.52 71.8-34.9 77.8-34.9L77.8-34.9Q83.7-34.9 87.37-32.45 91.05-30 91.05-25.1L91.05-25.1 91.05-24.5 85.65-24.5 85.65-25.15Q85.65-27.55 83.5-28.88 81.34-30.2 77.9-30.2L77.9-30.2Q74.2-30.2 72.02-29.1 69.84-28 69.84-25.9L69.84-25.9Q69.84-24.35 71.05-23.33 72.25-22.3 74.05-21.65 75.84-21 78.95-20.2L78.95-20.2Q83.15-19.1 85.72-18.1 88.3-17.1 90.15-15.13 92-13.15 92-9.95L92-9.95Q92-4.45 88.15-1.93 84.3 0.6 77.65 0.6L77.65 0.6Z" opacity="1" transform="matrix(1,0,0,1,0,0)" fill="#ffffff" class="wordmark-text-0" data-fill-palette-color="primary" id="text-0"></path></svg></g></svg></g><g transform="matrix(1,0,0,1,0,117.09409050097463)"><svg viewBox="0 0 244.43135999999998 13.377373029772327" height="13.377373029772327" width="244.43135999999998"><g transform="matrix(1,0,0,1,0,0)"><svg width="244.43135999999998" viewBox="1 -37.5 913.510009765625 50" height="13.377373029772327" data-palette-color="#ffffff"><path d="M12.5-11.75L12.5-11.75 13.95-11.75 13.95-15.6Q13.95-20.35 13.43-21.98 12.9-23.6 11.4-23.6L11.4-23.6Q10.5-23.6 9.78-23.13 9.05-22.65 9.05-21.83 9.05-21 9.35-20.15L9.35-20.15 10.6-20.15Q11-19.1 11-17.63 11-16.15 9.75-15.08 8.5-14 6.6-14L6.6-14Q2.3-14 2.3-18.15L2.3-18.15Q2.3-24.3 12.75-24.3L12.75-24.3Q18.7-24.3 20.98-22.28 23.25-20.25 23.25-14.85L23.25-14.85 23.25-4.7Q23.25-2.1 24.7-2.1L24.7-2.1Q26.4-2.1 26.7-7.25L26.7-7.25 27.45-7.2Q27.25-2.8 25.8-1.15 24.35 0.5 21.05 0.5L21.05 0.5Q15.05 0.5 14.15-3.2L14.15-3.2Q13.5-1.3 12.2-0.4 10.9 0.5 8.4 0.5L8.4 0.5Q1 0.5 1-5.55L1-5.55Q1-9.1 3.83-10.43 6.65-11.75 12.5-11.75ZM10.5-5.6Q10.5-3 10.78-2.25 11.05-1.5 11.83-1.5 12.6-1.5 13.28-2.78 13.95-4.05 13.95-6.3L13.95-6.3 13.95-10.95 13.6-10.95Q10.5-10.95 10.5-6.4L10.5-6.4 10.5-5.6ZM35.3-27.25Q32.65-27.25 31.52-28.6 30.4-29.95 30.4-31.95 30.4-33.95 31.62-35.25 32.85-36.55 35.35-36.55 37.85-36.55 39.15-35.38 40.45-34.2 40.45-32.02 40.45-29.85 39.2-28.55 37.95-27.25 35.3-27.25ZM27.75-22.9L27.75-23.8 40-23.8 40-0.9 42.8-0.9 42.8 0 27.95 0 27.95-0.9 30.7-0.9 30.7-22.9 27.75-22.9ZM60.5-22.4L60.5-22.4Q58.65-22.4 57.25-20 55.84-17.6 55.84-14.3L55.84-14.3 55.84-0.9 59.4-0.9 59.4 0 43.8 0 43.8-0.9 46.55-0.9 46.55-22.9 43.8-22.9 43.8-23.8 55.84-23.8 55.84-19Q56.5-21.55 58.34-22.93 60.2-24.3 62.55-24.3 64.9-24.3 66.37-22.98 67.84-21.65 67.84-19.23 67.84-16.8 66.75-15.5 65.65-14.2 63.37-14.2 61.09-14.2 60.02-15.7 58.95-17.2 59.75-19.85L59.75-19.85 61.55-19.85Q62.8-22.4 60.5-22.4ZM86.79-13.45Q86.79-18.6 86.29-20.38 85.79-22.15 84.34-22.15 82.89-22.15 81.74-20.28 80.59-18.4 80.59-15.25L80.59-15.25 80.59-6.1Q80.59-3.95 81.44-2.45 82.29-0.95 83.94-0.95 85.59-0.95 86.19-3.15 86.79-5.35 86.79-10.85L86.79-10.85 86.79-13.45ZM68.64-23.8L80.49-23.8 80.49-19.85Q82.44-24.3 87.39-24.3L87.39-24.3Q91.69-24.3 94.07-21.2 96.44-18.1 96.44-11.8 96.44-5.5 93.87-2.5 91.29 0.5 86.14 0.5L86.14 0.5Q83.74 0.5 82.54-0.1 81.34-0.7 80.59-1.95L80.59-1.95 80.59 11 87.04 11 87.04 11.9 68.54 11.9 68.54 11 71.29 11 71.29-22.9 68.64-22.9 68.64-23.8ZM114.09-9.85L114.09-9.85 114.09-14.1Q114.09-18.95 113.57-21.18 113.04-23.4 111.14-23.4L111.14-23.4Q110.04-23.4 109.37-22.78 108.69-22.15 108.39-20.7L108.39-20.7Q107.94-18.45 107.94-13.85L107.94-13.85 107.94-9.95Q107.94-4.5 108.27-3.4 108.59-2.3 108.94-1.6L108.94-1.6Q109.49-0.4 111.09-0.4L111.09-0.4Q113.04-0.4 113.64-2.65L113.64-2.65Q114.09-4.25 114.09-9.85ZM110.99 0.5Q104.74 0.5 101.54-2.7 98.34-5.9 98.34-11.88 98.34-17.85 101.77-21.08 105.19-24.3 111.39-24.3 117.59-24.3 120.64-21.33 123.69-18.35 123.69-12.25L123.69-12.25Q123.69 0.5 110.99 0.5L110.99 0.5ZM141.79-22.4L141.79-22.4Q139.94-22.4 138.54-20 137.14-17.6 137.14-14.3L137.14-14.3 137.14-0.9 140.69-0.9 140.69 0 125.09 0 125.09-0.9 127.84-0.9 127.84-22.9 125.09-22.9 125.09-23.8 137.14-23.8 137.14-19Q137.79-21.55 139.64-22.93 141.49-24.3 143.84-24.3 146.19-24.3 147.66-22.98 149.14-21.65 149.14-19.23 149.14-16.8 148.04-15.5 146.94-14.2 144.66-14.2 142.39-14.2 141.31-15.7 140.24-17.2 141.04-19.85L141.04-19.85 142.84-19.85Q144.09-22.4 141.79-22.4ZM152.34-7.15L152.34-7.15 152.34-22.9 149.59-22.9 149.59-23.8 152.34-23.8 152.34-30.25 161.64-32.55 161.64-23.8 168.14-23.8 168.14-22.9 161.64-22.9 161.64-6.05Q161.64-3.7 162.11-2.6 162.59-1.5 164.09-1.5 165.59-1.5 166.71-3 167.84-4.5 168.19-7.1L168.19-7.1 169.04-7Q168.64-3.55 166.84-1.53 165.04 0.5 160.89 0.5 156.74 0.5 154.54-1.15 152.34-2.8 152.34-7.15ZM181.03-7.15L181.03-7.15 181.03-22.9 178.28-22.9 178.28-23.8 181.03-23.8 181.03-30.25 190.33-32.55 190.33-23.8 196.83-23.8 196.83-22.9 190.33-22.9 190.33-6.05Q190.33-3.7 190.81-2.6 191.28-1.5 192.78-1.5 194.28-1.5 195.41-3 196.53-4.5 196.88-7.1L196.88-7.1 197.73-7Q197.33-3.55 195.53-1.53 193.73 0.5 189.58 0.5 185.43 0.5 183.23-1.15 181.03-2.8 181.03-7.15ZM210.23-11.75L210.23-11.75 211.68-11.75 211.68-15.6Q211.68-20.35 211.15-21.98 210.63-23.6 209.13-23.6L209.13-23.6Q208.23-23.6 207.5-23.13 206.78-22.65 206.78-21.83 206.78-21 207.08-20.15L207.08-20.15 208.33-20.15Q208.73-19.1 208.73-17.63 208.73-16.15 207.48-15.08 206.23-14 204.33-14L204.33-14Q200.03-14 200.03-18.15L200.03-18.15Q200.03-24.3 210.48-24.3L210.48-24.3Q216.43-24.3 218.7-22.28 220.98-20.25 220.98-14.85L220.98-14.85 220.98-4.7Q220.98-2.1 222.43-2.1L222.43-2.1Q224.13-2.1 224.43-7.25L224.43-7.25 225.18-7.2Q224.98-2.8 223.53-1.15 222.08 0.5 218.78 0.5L218.78 0.5Q212.78 0.5 211.88-3.2L211.88-3.2Q211.23-1.3 209.93-0.4 208.63 0.5 206.13 0.5L206.13 0.5Q198.73 0.5 198.73-5.55L198.73-5.55Q198.73-9.1 201.55-10.43 204.38-11.75 210.23-11.75ZM208.23-5.6Q208.23-3 208.5-2.25 208.78-1.5 209.55-1.5 210.33-1.5 211-2.78 211.68-4.05 211.68-6.3L211.68-6.3 211.68-10.95 211.33-10.95Q208.23-10.95 208.23-6.4L208.23-6.4 208.23-5.6ZM237.08-22.9L242.03-14.75 247.93-22.9 244.33-22.9 244.33-23.8 251.78-23.8 251.78-22.9 249.18-22.9 242.68-13.7 250.83-0.9 253.43-0.9 253.43 0 236.73 0 236.73-0.9 240.28-0.9 234.78-9.9 229.08-0.9 232.38-0.9 232.38 0 224.53 0 224.53-0.9 227.83-0.9 234.18-10.9 226.58-22.9 223.68-22.9 223.68-23.8 240.58-23.8 240.58-22.9 237.08-22.9ZM261.27-27.25Q258.62-27.25 257.5-28.6 256.37-29.95 256.37-31.95 256.37-33.95 257.6-35.25 258.82-36.55 261.32-36.55 263.82-36.55 265.12-35.38 266.42-34.2 266.42-32.02 266.42-29.85 265.17-28.55 263.92-27.25 261.27-27.25ZM253.72-22.9L253.72-23.8 265.97-23.8 265.97-0.9 268.77-0.9 268.77 0 253.92 0 253.92-0.9 256.67-0.9 256.67-22.9 253.72-22.9ZM292.77-23.4L292.77-23.4Q290.57-23.4 289.62-21 288.67-18.6 288.67-13.05L288.67-13.05 288.67-10.45Q288.67-5.5 289.77-3.35 290.87-1.2 293.82-1.2 296.77-1.2 298.52-3.2 300.27-5.2 300.77-7.75L300.77-7.75 301.67-7.65Q300.72-3.35 298.17-1.45L298.17-1.45Q295.57 0.5 291.02 0.5L291.02 0.5Q285.22 0.5 282.12-2.63 279.02-5.75 279.02-11.78 279.02-17.8 282.54-21.05 286.07-24.3 292.37-24.3L292.37-24.3Q296.82-24.3 299.17-22.58 301.52-20.85 301.52-18.25 301.52-15.65 300.39-14.45 299.27-13.25 297.29-13.25 295.32-13.25 294.12-14.3 292.92-15.35 292.92-17.4L292.92-17.4Q292.92-18.3 293.17-19.2L293.17-19.2 294.82-19.2Q295.17-20.2 295.17-21L295.17-21Q295.17-23.4 292.77-23.4ZM319.06-9.85L319.06-9.85 319.06-14.1Q319.06-18.95 318.54-21.18 318.02-23.4 316.12-23.4L316.12-23.4Q315.02-23.4 314.34-22.78 313.67-22.15 313.37-20.7L313.37-20.7Q312.92-18.45 312.92-13.85L312.92-13.85 312.92-9.95Q312.92-4.5 313.24-3.4 313.56-2.3 313.92-1.6L313.92-1.6Q314.47-0.4 316.06-0.4L316.06-0.4Q318.02-0.4 318.62-2.65L318.62-2.65Q319.06-4.25 319.06-9.85ZM315.97 0.5Q309.72 0.5 306.52-2.7 303.31-5.9 303.31-11.88 303.31-17.85 306.74-21.08 310.17-24.3 316.37-24.3 322.56-24.3 325.62-21.33 328.67-18.35 328.67-12.25L328.67-12.25Q328.67 0.5 315.97 0.5L315.97 0.5ZM330.06-22.9L330.06-23.8 342.11-23.8 342.11-19.2Q343.76-24.3 349.39-24.3 355.01-24.3 356.21-18.9L356.21-18.9Q357.96-24.3 363.56-24.3L363.56-24.3Q370.91-24.3 370.91-15.95L370.91-15.95 370.91-0.9 373.71-0.9 373.71 0 359.86 0 359.86-0.9 361.61-0.9 361.61-17.15Q361.61-20.95 360.96-21.6L360.96-21.6Q360.66-21.9 360.16-21.9L360.16-21.9Q358.71-21.9 357.61-19.95 356.51-18 356.51-15L356.51-15 356.51-0.9 358.31-0.9 358.31 0 345.46 0 345.46-0.9 347.21-0.9 347.21-17.15Q347.21-20.95 346.56-21.6L346.56-21.6Q346.26-21.9 345.76-21.9L345.76-21.9Q344.36-21.9 343.24-19.78 342.11-17.65 342.11-14.7L342.11-14.7 342.11-0.9 343.91-0.9 343.91 0 330.06 0 330.06-0.9 332.81-0.9 332.81-22.9 330.06-22.9ZM392.71-13.45Q392.71-18.6 392.21-20.38 391.71-22.15 390.26-22.15 388.81-22.15 387.66-20.28 386.51-18.4 386.51-15.25L386.51-15.25 386.51-6.1Q386.51-3.95 387.36-2.45 388.21-0.95 389.86-0.95 391.51-0.95 392.11-3.15 392.71-5.35 392.71-10.85L392.71-10.85 392.71-13.45ZM374.56-23.8L386.41-23.8 386.41-19.85Q388.36-24.3 393.31-24.3L393.31-24.3Q397.61-24.3 399.98-21.2 402.36-18.1 402.36-11.8 402.36-5.5 399.78-2.5 397.21 0.5 392.06 0.5L392.06 0.5Q389.66 0.5 388.46-0.1 387.26-0.7 386.51-1.95L386.51-1.95 386.51 11 392.96 11 392.96 11.9 374.46 11.9 374.46 11 377.21 11 377.21-22.9 374.56-22.9 374.56-23.8ZM415.86-11.75L415.86-11.75 417.31-11.75 417.31-15.6Q417.31-20.35 416.78-21.98 416.26-23.6 414.76-23.6L414.76-23.6Q413.86-23.6 413.13-23.13 412.41-22.65 412.41-21.83 412.41-21 412.71-20.15L412.71-20.15 413.96-20.15Q414.36-19.1 414.36-17.63 414.36-16.15 413.11-15.08 411.86-14 409.96-14L409.96-14Q405.66-14 405.66-18.15L405.66-18.15Q405.66-24.3 416.11-24.3L416.11-24.3Q422.06-24.3 424.33-22.28 426.61-20.25 426.61-14.85L426.61-14.85 426.61-4.7Q426.61-2.1 428.06-2.1L428.06-2.1Q429.76-2.1 430.06-7.25L430.06-7.25 430.81-7.2Q430.61-2.8 429.16-1.15 427.71 0.5 424.41 0.5L424.41 0.5Q418.41 0.5 417.51-3.2L417.51-3.2Q416.86-1.3 415.56-0.4 414.26 0.5 411.76 0.5L411.76 0.5Q404.36 0.5 404.36-5.55L404.36-5.55Q404.36-9.1 407.18-10.43 410.01-11.75 415.86-11.75ZM413.86-5.6Q413.86-3 414.13-2.25 414.41-1.5 415.18-1.5 415.96-1.5 416.63-2.78 417.31-4.05 417.31-6.3L417.31-6.3 417.31-10.95 416.96-10.95Q413.86-10.95 413.86-6.4L413.86-6.4 413.86-5.6ZM431.4-22.9L431.4-23.8 443.45-23.8 443.45-19.2Q444.25-21.5 445.9-22.9 447.55-24.3 450.9-24.3L450.9-24.3Q458.65-24.3 458.65-15.95L458.65-15.95 458.65-0.9 461.45-0.9 461.45 0 447.3 0 447.3-0.9 449.35-0.9 449.35-17.15Q449.35-20.15 448.95-21.03 448.55-21.9 447.5-21.9L447.5-21.9Q445.9-21.9 444.68-19.8 443.45-17.7 443.45-14.7L443.45-14.7 443.45-0.9 445.6-0.9 445.6 0 431.4 0 431.4-0.9 434.15-0.9 434.15-22.9 431.4-22.9ZM461.4-22.9L459.35-22.9 459.35-23.8 473.85-23.8 473.85-22.9 471.15-22.9 476.6-6.3 482.4-22.9 479.05-22.9 479.05-23.8 486.1-23.8 486.1-22.9 483.6-22.9 474.25 4.05Q472.6 8.75 470.55 10.63 468.5 12.5 465.55 12.5 462.6 12.5 460.9 11.15 459.2 9.8 459.2 7.7 459.2 5.6 460.3 4.5 461.4 3.4 463.2 3.4L463.2 3.4Q467.35 3.4 467.35 6.85L467.35 6.85Q467.35 7.6 467.05 8.65L467.05 8.65 465.3 8.65Q464.9 9.8 465.2 10.55 465.5 11.3 466.55 11.3L466.55 11.3Q468.6 11.3 470.2 9.28 471.8 7.25 473.25 3.1L473.25 3.1 474.35 0 469.95 0 461.4-22.9ZM511.9-22.4L511.9-22.4Q510.05-22.4 508.65-20 507.25-17.6 507.25-14.3L507.25-14.3 507.25-0.9 510.8-0.9 510.8 0 495.2 0 495.2-0.9 497.95-0.9 497.95-22.9 495.2-22.9 495.2-23.8 507.25-23.8 507.25-19Q507.9-21.55 509.75-22.93 511.6-24.3 513.95-24.3 516.3-24.3 517.77-22.98 519.25-21.65 519.25-19.23 519.25-16.8 518.15-15.5 517.05-14.2 514.77-14.2 512.5-14.2 511.42-15.7 510.35-17.2 511.15-19.85L511.15-19.85 512.95-19.85Q514.2-22.4 511.9-22.4ZM532.84 0.5Q526.39 0.5 523.17-2.83 519.94-6.15 519.94-12.08 519.94-18 523.57-21.15 527.19-24.3 532.79-24.3L532.79-24.3Q544.14-24.3 543.69-12.9L543.69-12.9 529.59-12.9 529.59-10.95Q529.59-6.05 530.84-3.55 532.09-1.05 535.19-1.05L535.19-1.05Q540.99-1.05 542.79-7.25L542.79-7.25 543.69-7.1Q542.74-3.5 540.27-1.5 537.79 0.5 532.84 0.5L532.84 0.5ZM529.64-16.35L529.64-13.9 534.79-13.9 534.79-16.35Q534.79-20.4 534.32-21.88 533.84-23.35 532.42-23.35 530.99-23.35 530.32-21.78 529.64-20.2 529.64-16.35L529.64-16.35ZM546.74 0.5L546.14 0.5 546.14-8.45 546.74-8.45Q548.04-4.1 550.24-2.35 552.44-0.6 555.74-0.6L555.74-0.6Q560.84-0.6 560.84-3.85L560.84-3.85Q560.84-5.25 559.59-5.95L559.59-5.95Q557.64-7.05 554.59-7.65L554.59-7.65Q551.19-8.55 548.89-10.05L548.89-10.05Q546.14-11.85 546.14-15.75 546.14-19.65 548.54-21.98 550.94-24.3 554.94-24.3L554.94-24.3Q557.39-24.3 559.99-23.15L559.99-23.15Q560.94-22.75 561.44-22.75 561.94-22.75 562.29-23.1 562.64-23.45 563.14-24.4L563.14-24.4 563.69-24.4 563.69-16.75 563.09-16.75Q560.54-23.25 555.19-23.25L555.19-23.25Q552.84-23.25 551.69-22.43 550.54-21.6 550.54-20.35L550.54-20.35Q550.54-19.6 550.89-19.18 551.24-18.75 551.44-18.55 551.64-18.35 552.09-18.13 552.54-17.9 552.84-17.78 553.14-17.65 553.77-17.45 554.39-17.25 554.69-17.2L554.69-17.2Q558.09-16.35 559.59-15.73 561.09-15.1 562.44-14.2L562.44-14.2Q565.19-12.3 565.19-8.08 565.19-3.85 562.69-1.68 560.19 0.5 555.84 0.5L555.84 0.5Q552.74 0.5 549.84-0.95L549.84-0.95Q549.24-1.35 548.89-1.35L548.89-1.35Q547.79-1.35 546.74 0.5L546.74 0.5ZM582.84-9.85L582.84-9.85 582.84-14.1Q582.84-18.95 582.31-21.18 581.79-23.4 579.89-23.4L579.89-23.4Q578.79-23.4 578.11-22.78 577.44-22.15 577.14-20.7L577.14-20.7Q576.69-18.45 576.69-13.85L576.69-13.85 576.69-9.95Q576.69-4.5 577.01-3.4 577.34-2.3 577.69-1.6L577.69-1.6Q578.24-0.4 579.84-0.4L579.84-0.4Q581.79-0.4 582.39-2.65L582.39-2.65Q582.84-4.25 582.84-9.85ZM579.74 0.5Q573.49 0.5 570.29-2.7 567.09-5.9 567.09-11.88 567.09-17.85 570.51-21.08 573.94-24.3 580.14-24.3 586.34-24.3 589.39-21.33 592.44-18.35 592.44-12.25L592.44-12.25Q592.44 0.5 579.74 0.5L579.74 0.5ZM623.09-0.9L623.09 0 611.69 0 611.14-3.65Q610.34-1.65 608.76-0.58 607.19 0.5 604.09 0.5L604.09 0.5Q596.34 0.5 596.34-7.85L596.34-7.85 596.34-22.9 593.54-22.9 593.54-23.8 605.64-23.8 605.64-6.65Q605.64-3.65 606.06-2.7 606.49-1.75 607.76-1.75 609.04-1.75 610.04-3.3 611.04-4.85 611.04-7.6L611.04-7.6 611.04-22.9 608.74-22.9 608.74-23.8 620.34-23.8 620.34-0.9 623.09-0.9ZM640.78-22.4L640.78-22.4Q638.93-22.4 637.53-20 636.13-17.6 636.13-14.3L636.13-14.3 636.13-0.9 639.68-0.9 639.68 0 624.08 0 624.08-0.9 626.83-0.9 626.83-22.9 624.08-22.9 624.08-23.8 636.13-23.8 636.13-19Q636.78-21.55 638.63-22.93 640.48-24.3 642.83-24.3 645.18-24.3 646.66-22.98 648.13-21.65 648.13-19.23 648.13-16.8 647.03-15.5 645.93-14.2 643.66-14.2 641.38-14.2 640.31-15.7 639.23-17.2 640.03-19.85L640.03-19.85 641.83-19.85Q643.08-22.4 640.78-22.4ZM662.58-23.4L662.58-23.4Q660.38-23.4 659.43-21 658.48-18.6 658.48-13.05L658.48-13.05 658.48-10.45Q658.48-5.5 659.58-3.35 660.68-1.2 663.63-1.2 666.58-1.2 668.33-3.2 670.08-5.2 670.58-7.75L670.58-7.75 671.48-7.65Q670.53-3.35 667.98-1.45L667.98-1.45Q665.38 0.5 660.83 0.5L660.83 0.5Q655.03 0.5 651.93-2.63 648.83-5.75 648.83-11.78 648.83-17.8 652.36-21.05 655.88-24.3 662.18-24.3L662.18-24.3Q666.63-24.3 668.98-22.58 671.33-20.85 671.33-18.25 671.33-15.65 670.21-14.45 669.08-13.25 667.11-13.25 665.13-13.25 663.93-14.3 662.73-15.35 662.73-17.4L662.73-17.4Q662.73-18.3 662.98-19.2L662.98-19.2 664.63-19.2Q664.98-20.2 664.98-21L664.98-21Q664.98-23.4 662.58-23.4ZM685.88 0.5Q679.43 0.5 676.2-2.83 672.98-6.15 672.98-12.08 672.98-18 676.6-21.15 680.23-24.3 685.83-24.3L685.83-24.3Q697.18-24.3 696.73-12.9L696.73-12.9 682.63-12.9 682.63-10.95Q682.63-6.05 683.88-3.55 685.13-1.05 688.23-1.05L688.23-1.05Q694.03-1.05 695.83-7.25L695.83-7.25 696.73-7.1Q695.78-3.5 693.3-1.5 690.83 0.5 685.88 0.5L685.88 0.5ZM682.68-16.35L682.68-13.9 687.83-13.9 687.83-16.35Q687.83-20.4 687.35-21.88 686.88-23.35 685.45-23.35 684.03-23.35 683.35-21.78 682.68-20.2 682.68-16.35L682.68-16.35ZM725.77-13.45Q725.77-18.6 725.27-20.38 724.77-22.15 723.32-22.15 721.87-22.15 720.72-20.28 719.57-18.4 719.57-15.25L719.57-15.25 719.57-6.1Q719.57-3.95 720.42-2.45 721.27-0.95 722.92-0.95 724.57-0.95 725.17-3.15 725.77-5.35 725.77-10.85L725.77-10.85 725.77-13.45ZM707.62-23.8L719.47-23.8 719.47-19.85Q721.42-24.3 726.37-24.3L726.37-24.3Q730.67-24.3 733.05-21.2 735.42-18.1 735.42-11.8 735.42-5.5 732.85-2.5 730.27 0.5 725.12 0.5L725.12 0.5Q722.72 0.5 721.52-0.1 720.32-0.7 719.57-1.95L719.57-1.95 719.57 11 726.02 11 726.02 11.9 707.52 11.9 707.52 11 710.27 11 710.27-22.9 707.62-22.9 707.62-23.8ZM736.72-36.6L736.72-37.5 748.97-37.5 748.97-0.9 751.77-0.9 751.77 0 736.92 0 736.92-0.9 739.67-0.9 739.67-36.6 736.72-36.6ZM764.72-11.75L764.72-11.75 766.17-11.75 766.17-15.6Q766.17-20.35 765.64-21.98 765.12-23.6 763.62-23.6L763.62-23.6Q762.72-23.6 761.99-23.13 761.27-22.65 761.27-21.83 761.27-21 761.57-20.15L761.57-20.15 762.82-20.15Q763.22-19.1 763.22-17.63 763.22-16.15 761.97-15.08 760.72-14 758.82-14L758.82-14Q754.52-14 754.52-18.15L754.52-18.15Q754.52-24.3 764.97-24.3L764.97-24.3Q770.92-24.3 773.19-22.28 775.47-20.25 775.47-14.85L775.47-14.85 775.47-4.7Q775.47-2.1 776.92-2.1L776.92-2.1Q778.62-2.1 778.92-7.25L778.92-7.25 779.67-7.2Q779.47-2.8 778.02-1.15 776.57 0.5 773.27 0.5L773.27 0.5Q767.27 0.5 766.37-3.2L766.37-3.2Q765.72-1.3 764.42-0.4 763.12 0.5 760.62 0.5L760.62 0.5Q753.22 0.5 753.22-5.55L753.22-5.55Q753.22-9.1 756.04-10.43 758.87-11.75 764.72-11.75ZM762.72-5.6Q762.72-3 762.99-2.25 763.27-1.5 764.04-1.5 764.82-1.5 765.49-2.78 766.17-4.05 766.17-6.3L766.17-6.3 766.17-10.95 765.82-10.95Q762.72-10.95 762.72-6.4L762.72-6.4 762.72-5.6ZM780.27-22.9L780.27-23.8 792.32-23.8 792.32-19.2Q793.12-21.5 794.77-22.9 796.42-24.3 799.77-24.3L799.77-24.3Q807.52-24.3 807.52-15.95L807.52-15.95 807.52-0.9 810.32-0.9 810.32 0 796.17 0 796.17-0.9 798.22-0.9 798.22-17.15Q798.22-20.15 797.82-21.03 797.42-21.9 796.37-21.9L796.37-21.9Q794.77-21.9 793.54-19.8 792.32-17.7 792.32-14.7L792.32-14.7 792.32-0.9 794.47-0.9 794.47 0 780.27 0 780.27-0.9 783.02-0.9 783.02-22.9 780.27-22.9ZM811.06-22.9L811.06-23.8 823.11-23.8 823.11-19.2Q823.91-21.5 825.56-22.9 827.21-24.3 830.56-24.3L830.56-24.3Q838.31-24.3 838.31-15.95L838.31-15.95 838.31-0.9 841.11-0.9 841.11 0 826.96 0 826.96-0.9 829.01-0.9 829.01-17.15Q829.01-20.15 828.61-21.03 828.21-21.9 827.16-21.9L827.16-21.9Q825.56-21.9 824.34-19.8 823.11-17.7 823.11-14.7L823.11-14.7 823.11-0.9 825.26-0.9 825.26 0 811.06 0 811.06-0.9 813.81-0.9 813.81-22.9 811.06-22.9ZM849.11-27.25Q846.46-27.25 845.34-28.6 844.21-29.95 844.21-31.95 844.21-33.95 845.44-35.25 846.66-36.55 849.16-36.55 851.66-36.55 852.96-35.38 854.26-34.2 854.26-32.02 854.26-29.85 853.01-28.55 851.76-27.25 849.11-27.25ZM841.56-22.9L841.56-23.8 853.81-23.8 853.81-0.9 856.61-0.9 856.61 0 841.76 0 841.76-0.9 844.51-0.9 844.51-22.9 841.56-22.9ZM857.71-22.9L857.71-23.8 869.76-23.8 869.76-19.2Q870.56-21.5 872.21-22.9 873.86-24.3 877.21-24.3L877.21-24.3Q884.96-24.3 884.96-15.95L884.96-15.95 884.96-0.9 887.76-0.9 887.76 0 873.61 0 873.61-0.9 875.66-0.9 875.66-17.15Q875.66-20.15 875.26-21.03 874.86-21.9 873.81-21.9L873.81-21.9Q872.21-21.9 870.98-19.8 869.76-17.7 869.76-14.7L869.76-14.7 869.76-0.9 871.91-0.9 871.91 0 857.71 0 857.71-0.9 860.46-0.9 860.46-22.9 857.71-22.9ZM908.46-26.4L908.46-26.4 909.86-27.25Q910.16-28.8 908.66-28.8L908.66-28.8Q906.51-28.8 906.51-25.5L906.51-25.5Q906.51-24.2 906.86-22.5L906.86-22.5Q910.66-19.95 910.66-15.98 910.66-12 907.91-9.8 905.16-7.6 900.46-7.6L900.46-7.6Q898.51-7.6 896.41-8L896.41-8Q894.21-6.6 894.21-5.9 894.21-5.2 897.41-5.2L897.41-5.2 902.51-5.2Q913.86-5.2 913.86 2.95L913.86 2.95Q913.86 7.35 910.43 9.93 907.01 12.5 899.76 12.5L899.76 12.5Q887.41 12.5 887.41 7.15L887.41 7.15Q887.41 4.25 891.26 3.15L891.26 3.15 894.26 4.5Q893.86 5.95 893.86 7.25L893.86 7.25Q893.86 11.55 900.26 11.55L900.26 11.55Q904.16 11.55 906.26 10.1 908.36 8.65 908.36 6.5 908.36 4.35 907.08 3.63 905.81 2.9 902.01 2.9L902.01 2.9 897.16 2.9Q893.11 2.9 891.36 1.55 889.61 0.2 889.61-1.78 889.61-3.75 890.86-5.08 892.11-6.4 895.31-8.35L895.31-8.35Q889.51-10 889.51-15.95L889.51-15.95Q889.51-19.7 892.21-22 894.91-24.3 900.31-24.3L900.31-24.3Q903.56-24.3 905.86-23.05L905.86-23.05Q905.56-24.4 905.56-25.5L905.56-25.5Q905.56-28.3 907.06-29.55 908.56-30.8 910.41-30.8 912.26-30.8 913.38-29.83 914.51-28.85 914.51-27.15 914.51-25.45 913.61-24.63 912.71-23.8 911.43-23.8 910.16-23.8 909.33-24.48 908.51-25.15 908.46-26.4ZM897.86-17.05L897.86-17.05 897.86-14.35Q897.86-11 898.43-9.8 899.01-8.6 900.18-8.6 901.36-8.6 901.88-9.78 902.41-10.95 902.41-14.6L902.41-14.6 902.41-17.05Q902.41-20.95 901.91-22.18 901.41-23.4 900.23-23.4 899.06-23.4 898.46-22.13 897.86-20.85 897.86-17.05Z" opacity="1" transform="matrix(1,0,0,1,0,0)" fill="#ffffff" class="slogan-text-1" data-fill-palette-color="secondary" id="text-1"></path></svg></g></svg></g></svg></g></svg></g></svg></g></svg></g></svg></g><g><path d="M245.816 0c68.262 0 123.6 55.338 123.6 123.6 0 68.262-55.338 123.6-123.6 123.6-39.415 0-74.52-18.449-97.153-47.182l5.499 0c21.889 26.225 54.823 42.911 91.654 42.911 65.903 0 119.329-53.425 119.328-119.329 0-65.903-53.425-119.329-119.328-119.329-36.831 0-69.764 16.686-91.654 42.911l-5.499 0c22.632-28.734 57.738-47.182 97.153-47.182z" fill="#ffffff" stroke="transparent" data-fill-palette-color="tertiary"></path></g></svg></g><defs></defs></svg><rect width="395.52" height="247.2" fill="none" stroke="none" visibility="hidden"></rect></g></svg></g></svg>