<svg width="23" height="31" viewBox="0 0 23 31" fill="none" xmlns="http://www.w3.org/2000/svg">
<path d="M22.1054 9.2647V25.7747C22.1054 26.6073 21.3917 27.0045 20.5265 27.6249C19.8318 28.1242 18.9476 27.5053 18.9476 26.6887V10.5567C18.9476 10.2201 18.8307 9.89951 18.4518 9.70333C18.0728 9.50714 6.23415 3.21958 6.23415 3.21958C6.0431 3.14781 5.20944 2.61667 4.09788 3.19406C3.04159 3.74275 2.46686 4.33929 2.32002 4.62001L15.2355 11.7689C15.5782 11.9507 15.7897 12.2314 15.7897 12.5919V29.8213C15.7858 30.0156 15.7295 30.2052 15.6268 30.3696C15.5242 30.5341 15.3791 30.6671 15.2071 30.7544C15.0436 30.8359 14.8636 30.8779 14.6813 30.8772C14.4669 30.8797 14.256 30.8223 14.0719 30.7113C13.7324 30.5023 1.7974 23.1094 1.00953 22.6293C0.630586 22.3997 0.186911 21.9291 0.177438 21.5798L0.000599562 5.17348C0.000599562 4.85767 -0.0357154 4.301 0.456906 3.52742C1.55741 1.79842 5.39733 -0.168233 7.34097 0.850983L21.5496 8.11629C21.8922 8.29493 22.1054 8.65221 22.1054 9.2647Z" fill="#FF7F40"/>
</svg>
