<svg width="26" height="26" viewBox="0 0 26 26" fill="none" xmlns="http://www.w3.org/2000/svg">
<path d="M5.81995 26H0.429474V8.64113H5.81995V26ZM3.12181 6.27322C1.39811 6.27322 0 4.84551 0 3.12181C1.23375e-08 2.29385 0.328904 1.49981 0.914357 0.914357C1.49981 0.328904 2.29386 0 3.12181 0C3.94977 0 4.74381 0.328904 5.32926 0.914357C5.91472 1.49981 6.24362 2.29385 6.24362 3.12181C6.24362 4.84551 4.84493 6.27322 3.12181 6.27322ZM25.9948 26H20.6159V17.5498C20.6159 15.5359 20.5753 12.9533 17.8133 12.9533C15.0107 12.9533 14.5812 15.1413 14.5812 17.4047V26H9.19655V8.64113H14.3665V11.009H14.4419C15.1616 9.64517 16.9195 8.20585 19.5422 8.20585C24.9977 8.20585 26.0006 11.7983 26.0006 16.4645V26H25.9948Z" fill="white"/>
</svg>
