<svg width="42" height="32" viewBox="0 0 42 32" fill="none" xmlns="http://www.w3.org/2000/svg">
<path d="M14.8571 16C17.3821 16 19.4286 13.9536 19.4286 11.4286C19.4286 8.90357 17.3821 6.85714 14.8571 6.85714C12.3321 6.85714 10.2857 8.90357 10.2857 11.4286C10.2857 13.95 12.3357 16 14.8571 16ZM33.1429 14.2857H26.2857C25.3393 14.2857 24.5714 15.0536 24.5714 16C24.5714 16.9464 25.3393 17.7143 26.2857 17.7143H33.1429C34.0893 17.7143 34.8571 16.9464 34.8571 16C34.8571 15.0536 34.0928 14.2857 33.1429 14.2857ZM17.1429 18.2857H12.5714C9.41428 18.2857 6.85714 20.8429 6.85714 24C6.85714 24.6286 7.37143 25.1429 8 25.1429H21.7143C22.3454 25.1429 22.8571 24.6311 22.8571 24C22.8571 20.8429 20.3 18.2857 17.1429 18.2857ZM33.1429 8.57143H26.2857C25.3393 8.57143 24.5714 9.33929 24.5714 10.2857C24.5714 11.2321 25.3393 12 26.2857 12H33.1429C34.0893 12 34.8571 11.2321 34.8571 10.2857C34.8571 9.33929 34.0928 8.57143 33.1429 8.57143ZM36.5714 0H4.57143C2.04643 0 0 2.04643 0 4.57143V27.4286C0 29.9536 2.04643 32 4.57143 32H36.5714C39.0964 32 41.1428 29.9536 41.1428 27.4286V4.57143C41.1428 2.04643 39.0928 0 36.5714 0ZM37.7143 27.4286C37.7143 28.0587 37.2016 28.5714 36.5714 28.5714H4.57143C3.94129 28.5714 3.42857 28.0587 3.42857 27.4286V4.57143C3.42857 3.94129 3.94129 3.42857 4.57143 3.42857H36.5714C37.2016 3.42857 37.7143 3.94129 37.7143 4.57143V27.4286Z" fill="white"/>
</svg>
